<svg width="362" height="289" viewBox="0 0 362 289" fill="url(#paint0_linear_554_2669)" xmlns="http://www.w3.org/2000/svg">
<mask id="mask0_554_2669" style="mask-type:alpha" maskUnits="userSpaceOnUse" x="-1" y="-1" width="364" height="290">
<path d="M339.586 288.864C352.325 288.864 362.651 278.537 362.651 265.798V22.6235C362.651 9.88507 352.325 -0.441895 339.586 -0.441895H22.6583C9.92002 -0.441742 -0.406116 9.88516 -0.406128 22.6235V211.441C-0.406128 224.179 9.92 234.506 22.6583 234.506H131.033C144.588 234.506 155.221 246.138 154.006 259.638L153.638 263.731C152.423 277.231 163.055 288.864 176.609 288.864H339.586Z" fill="#D9D9D9"/>
</mask>
<g mask="url(#mask0_554_2669)">
<rect width="362.652" height="289.898" rx="20" transform="matrix(1 0 0 -1 0 289.456)" fill="url(#paint0_linear_554_2669)"/>
</g>
<defs>
<linearGradient id="paint0_linear_554_2669" x1="4.45818" y1="97.7712" x2="362.652" y2="97.7712" gradientUnits="userSpaceOnUse">
<stop stop-color="#5095FD"/>
<stop offset="1" stop-color="#56FFF6"/>
</linearGradient>
</defs>
</svg>
