<svg width="422" height="169" viewBox="0 0 422 169" fill="#08101B" xmlns="http://www.w3.org/2000/svg">
<mask id="mask0_1151_2572" style="mask-type:alpha" maskUnits="userSpaceOnUse" x="0" y="0" width="422" height="169">
<path d="M26.47 168.495C22.1629 168.495 17.9951 166.968 14.7073 164.186C10.9383 160.996 8.62619 156.412 8.30103 151.486L0.0510254 26.4896C-0.824036 13.2288 9.65909 1.97429 22.9485 1.90656L398.045 0.000305176C411.198 -0.0665436 421.744 10.8614 421.209 24.0032L417.423 116.995C416.92 129.358 406.75 139.121 394.377 139.121H117.99C108.821 139.122 100.639 144.831 97.4592 153.399L97.1643 154.219C93.9839 162.787 85.8014 168.495 76.6321 168.495H26.47Z" fill="#D9D9D9"/>
</mask>
<g mask="url(#mask0_1151_2572)">
<path d="M413.259 268.294H9.02673V12.1434H413.259V268.294Z" fill="#08101B"/>
</g>
</svg>
