<svg width="50" height="50" viewBox="0 0 50 50" fill="none" xmlns="http://www.w3.org/2000/svg">
<g clip-path="url(#clip0_1158_5539)">
<path d="M50 25C50 11.1929 38.8071 0 25 0C11.1929 0 0 11.1929 0 25C0 38.8071 11.1929 50 25 50C38.8071 50 50 38.8071 50 25Z" fill="#08101B"/>
<path d="M17.1737 26.7718L25.9133 35.5114C26.27 35.8682 26.4412 36.2843 26.4269 36.76C26.4127 37.2356 26.2266 37.6517 25.8687 38.0085C25.5119 38.3355 25.0958 38.5067 24.6201 38.5221C24.1445 38.5376 23.7284 38.3664 23.3716 38.0085L11.5999 26.2368C11.4216 26.0584 11.2949 25.8652 11.22 25.6571C11.1451 25.449 11.1088 25.2261 11.1112 24.9882C11.1136 24.7504 11.1511 24.5275 11.2236 24.3194C11.2961 24.1113 11.4222 23.9181 11.6017 23.7397L23.3734 11.968C23.7004 11.641 24.1094 11.4775 24.6005 11.4775C25.0916 11.4775 25.5149 11.641 25.8704 11.968C26.2272 12.3247 26.4055 12.7486 26.4055 13.2397C26.4055 13.7308 26.2272 14.1541 25.8704 14.5096L17.1737 23.2047H37.1053C37.6106 23.2047 38.0345 23.3759 38.377 23.7183C38.7194 24.0608 38.8901 24.4841 38.8889 24.9882C38.8877 25.4924 38.7165 25.9163 38.3752 26.2599C38.0339 26.6036 37.6106 26.7742 37.1053 26.7718H17.1737Z" fill="#5095FD"/>
</g>
<defs>
<clipPath id="clip0_1158_5539">
<rect width="50" height="50" fill="white"/>
</clipPath>
</defs>
</svg>
