<svg width="22" height="22" viewBox="0 0 22 22" fill="none" xmlns="http://www.w3.org/2000/svg">
<path d="M2.29175 5.5C2.29175 4.3609 3.21515 3.4375 4.35425 3.4375H17.6459C18.785 3.4375 19.7084 4.3609 19.7084 5.5V13.0785C19.7084 14.2176 18.785 15.141 17.6459 15.141H7.31256C7.05486 15.141 6.80468 15.2278 6.60244 15.3876L3.21974 18.0589C2.84404 18.3555 2.29175 18.0879 2.29175 17.6092V5.5Z" stroke="url(#paint0_linear_1318_8924)" stroke-width="2" stroke-linejoin="round"/>
<path d="M7.56242 10.3128C8.06868 10.3128 8.47909 9.90242 8.47909 9.39616C8.47909 8.8899 8.06868 8.47949 7.56242 8.47949C7.05616 8.47949 6.64575 8.8899 6.64575 9.39616C6.64575 9.90242 7.05616 10.3128 7.56242 10.3128Z" fill="url(#paint1_linear_1318_8924)"/>
<path d="M10.9999 10.3128C11.5062 10.3128 11.9166 9.90242 11.9166 9.39616C11.9166 8.8899 11.5062 8.47949 10.9999 8.47949C10.4937 8.47949 10.0833 8.8899 10.0833 9.39616C10.0833 9.90242 10.4937 10.3128 10.9999 10.3128Z" fill="url(#paint2_linear_1318_8924)"/>
<path d="M14.4374 10.3128C14.9437 10.3128 15.3541 9.90242 15.3541 9.39616C15.3541 8.8899 14.9437 8.47949 14.4374 8.47949C13.9312 8.47949 13.5208 8.8899 13.5208 9.39616C13.5208 9.90242 13.9312 10.3128 14.4374 10.3128Z" fill="url(#paint3_linear_1318_8924)"/>
<defs>
<linearGradient id="paint0_linear_1318_8924" x1="11.0001" y1="3.4375" x2="11.0001" y2="18.1832" gradientUnits="userSpaceOnUse">
<stop stop-color="#56FFF6"/>
<stop offset="1" stop-color="#5095FD"/>
</linearGradient>
<linearGradient id="paint1_linear_1318_8924" x1="7.56242" y1="8.47949" x2="7.56242" y2="10.3128" gradientUnits="userSpaceOnUse">
<stop stop-color="#56FFF6"/>
<stop offset="1" stop-color="#5095FD"/>
</linearGradient>
<linearGradient id="paint2_linear_1318_8924" x1="10.9999" y1="8.47949" x2="10.9999" y2="10.3128" gradientUnits="userSpaceOnUse">
<stop stop-color="#56FFF6"/>
<stop offset="1" stop-color="#5095FD"/>
</linearGradient>
<linearGradient id="paint3_linear_1318_8924" x1="14.4374" y1="8.47949" x2="14.4374" y2="10.3128" gradientUnits="userSpaceOnUse">
<stop stop-color="#56FFF6"/>
<stop offset="1" stop-color="#5095FD"/>
</linearGradient>
</defs>
</svg>
