<svg width="45" height="45" viewBox="0 0 45 45" fill="none" xmlns="http://www.w3.org/2000/svg">
<path d="M14.8575 22.5001C14.8575 23.3109 14.5355 24.0884 13.9622 24.6617C13.3889 25.235 12.6113 25.5571 11.8006 25.5571C10.9898 25.5571 10.2123 25.235 9.63896 24.6617C9.06566 24.0884 8.74359 23.3109 8.74359 22.5001C8.74359 21.6893 9.06566 20.9118 9.63896 20.3385C10.2123 19.7652 10.9898 19.4431 11.8006 19.4431C12.6113 19.4431 13.3889 19.7652 13.9622 20.3385C14.5355 20.9118 14.8575 21.6893 14.8575 22.5001ZM25.557 22.5001C25.557 23.3109 25.2349 24.0884 24.6616 24.6617C24.0883 25.235 23.3107 25.5571 22.5 25.5571C21.6892 25.5571 20.9117 25.235 20.3384 24.6617C19.7651 24.0884 19.443 23.3109 19.443 22.5001C19.443 21.6893 19.7651 20.9118 20.3384 20.3385C20.9117 19.7652 21.6892 19.4431 22.5 19.4431C23.3107 19.4431 24.0883 19.7652 24.6616 20.3385C25.2349 20.9118 25.557 21.6893 25.557 22.5001ZM36.2564 22.5001C36.2564 23.3109 35.9343 24.0884 35.361 24.6617C34.7877 25.235 34.0102 25.5571 33.1994 25.5571C32.3886 25.5571 31.6111 25.235 31.0378 24.6617C30.4645 24.0884 30.1424 23.3109 30.1424 22.5001C30.1424 21.6893 30.4645 20.9118 31.0378 20.3385C31.6111 19.7652 32.3886 19.4431 33.1994 19.4431C34.0102 19.4431 34.7877 19.7652 35.361 20.3385C35.9343 20.9118 36.2564 21.6893 36.2564 22.5001Z" fill="#08101B"/>
</svg>
