<svg width="39" height="39" viewBox="0 0 39 39" fill="none" xmlns="http://www.w3.org/2000/svg">
<rect width="39" height="39" rx="19.5" fill="#08101B"/>
<path d="M27.922 17.6397L28.849 16.7127C29.5864 15.9753 30.0007 14.9751 30.0007 13.9322C30.0007 12.8893 29.5864 11.8892 28.849 11.1517C28.1116 10.4143 27.1114 10 26.0685 10C25.0256 10 24.0254 10.4143 23.288 11.1517L22.361 12.0787L13.839 20.5987C13.262 21.1767 12.973 21.4657 12.725 21.7837C12.4324 22.1592 12.1813 22.5652 11.976 22.9947C11.803 23.3587 11.674 23.7467 11.416 24.5207L10.322 27.8017M27.922 17.6397C27.922 17.6397 25.953 17.5237 24.215 15.7857C22.477 14.0487 22.362 12.0787 22.362 12.0787M27.922 17.6397L19.401 26.1597C18.824 26.7367 18.535 27.0257 18.217 27.2737C17.8415 27.5663 17.4355 27.8175 17.006 28.0227C16.642 28.1957 16.255 28.3247 15.48 28.5827L12.199 29.6767M12.199 29.6767L11.397 29.9447C11.21 30.0074 11.0093 30.0167 10.8174 29.9716C10.6254 29.9264 10.4499 29.8287 10.3105 29.6893C10.171 29.5498 10.0733 29.3743 10.0281 29.1823C9.98301 28.9904 9.99231 28.7897 10.055 28.6027L10.323 27.8007L12.199 29.6767Z" stroke="url(#paint0_linear_1158_5551)" stroke-width="1.5"/>
<defs>
<linearGradient id="paint0_linear_1158_5551" x1="-6.49902" y1="24.4995" x2="49.001" y2="23.4995" gradientUnits="userSpaceOnUse">
<stop stop-color="#5095FD"/>
<stop offset="1" stop-color="#56FFF6"/>
</linearGradient>
</defs>
</svg>
