<svg width="21" height="22" viewBox="0 0 21 22" fill="none" xmlns="http://www.w3.org/2000/svg">
<path d="M16.1794 4.334C15.968 4.17891 15.7235 4.07674 15.466 4.03579C15.2084 3.99483 14.945 4.01625 14.6971 4.09829C14.0432 4.28543 13.3659 4.37437 12.6867 4.36229C11.6829 4.30684 10.6987 4.05725 9.7868 3.62686C8.66023 3.09662 7.44166 2.79861 6.20136 2.75C3.52386 2.75 2.49548 3.69286 2.31018 3.82486C2.22153 3.91329 2.15124 4.01895 2.10349 4.13557C2.05575 4.25219 2.03152 4.37738 2.03224 4.50371V18.7786C2.03224 19.0286 2.12985 19.2685 2.3036 19.4453C2.47735 19.6221 2.713 19.7214 2.95871 19.7214C3.20443 19.7214 3.44008 19.6221 3.61383 19.4453C3.78757 19.2685 3.88518 19.0286 3.88518 18.7786V14.7243C4.62342 14.4366 5.41151 14.3051 6.20136 14.3377C7.20511 14.3932 8.18928 14.6428 9.10121 15.0731C10.2278 15.6034 11.4464 15.9014 12.6867 15.95C13.8035 15.9929 14.9146 15.7668 15.9293 15.29C16.2028 15.1592 16.4347 14.9529 16.5985 14.6945C16.7623 14.4361 16.8515 14.1361 16.8558 13.8286V5.68229C16.8554 5.4192 16.794 5.15993 16.6765 4.92561C16.5589 4.6913 16.3886 4.48858 16.1794 4.334ZM15.0028 13.6777C14.2643 13.9643 13.4764 14.0958 12.6867 14.0643C11.6817 14.0101 10.6967 13.7571 9.7868 13.3194C8.65808 12.7968 7.44041 12.5023 6.20136 12.452C5.42081 12.4383 4.64193 12.5303 3.88518 12.7254V5.03171C4.6217 4.73692 5.41062 4.60203 6.20136 4.63571C7.20635 4.68991 8.19133 4.94291 9.10121 5.38057C10.2299 5.90315 11.4476 6.19774 12.6867 6.248C13.4677 6.25974 14.2467 6.1646 15.0028 5.96514V13.6777Z" fill="url(#paint0_linear_1318_9382)"/>
<defs>
<linearGradient id="paint0_linear_1318_9382" x1="9.444" y1="2.75" x2="9.444" y2="19.7214" gradientUnits="userSpaceOnUse">
<stop stop-color="#56FFF6"/>
<stop offset="1" stop-color="#5095FD"/>
</linearGradient>
</defs>
</svg>
