<svg width="30" height="30" viewBox="0 0 30 30" fill="none" xmlns="http://www.w3.org/2000/svg">
<path d="M0 6.16668V9.45085H4.69L0 6.16668ZM3.88667 24.4508H10.8333V19.5867L3.88667 24.4508ZM19.1667 19.5875V24.4508H26.1125L19.1667 19.5875ZM0 17.7842V21.0683L4.69167 17.7842H0ZM26.1142 2.78418H19.1667V7.64835L26.1142 2.78418ZM30 21.0692V17.7842H25.3075L30 21.0692ZM30 9.45085V6.16668L25.3092 9.45085H30ZM10.8333 2.78418H3.88667L10.8333 7.64835V2.78418Z" fill="#00247D"/>
<path d="M20.9503 17.7842L29.0436 23.4517C29.4382 23.044 29.7221 22.5423 29.8686 21.9942L23.8561 17.7842H20.9503ZM10.8336 17.7842H9.04944L0.956937 23.4508C1.3911 23.8925 1.94777 24.2083 2.57194 24.355L10.8336 18.57V17.7842ZM19.1669 9.45084H20.9511L29.0436 3.78417C28.6016 3.33651 28.042 3.02304 27.4294 2.88L19.1669 8.66501V9.45084ZM9.04944 9.45084L0.956937 3.78417C0.562076 4.19178 0.277822 4.69346 0.131104 5.24167L6.1436 9.45084H9.04944Z" fill="#CF1B2B"/>
<path d="M30 16.1175H17.5V24.4508H19.1667V19.5875L26.1125 24.4508H26.6667C27.1093 24.4504 27.5475 24.3619 27.9555 24.1903C28.3636 24.0188 28.7334 23.7677 29.0433 23.4517L20.95 17.7842H23.8558L29.8683 21.9942C29.9458 21.7133 30 21.4225 30 21.1175V21.0692L25.3075 17.7842H30V16.1175ZM0 16.1175V17.7842H4.69167L0 21.0683V21.1175C0 22.0267 0.365833 22.8492 0.956667 23.4508L9.04917 17.7842H10.8333V18.57L2.57167 24.3542C2.81667 24.4125 3.07 24.4508 3.33333 24.4508H3.88667L10.8333 19.5867V24.4508H12.5V16.1175H0ZM30 6.11751C30.0008 5.24411 29.657 4.40566 29.0433 3.78418L20.9508 9.45085H19.1667V8.66501L27.4292 2.88001C27.1795 2.81878 26.9237 2.78662 26.6667 2.78418H26.1142L19.1667 7.64835V2.78418H17.5V11.1175H30V9.45085H25.3092L30 6.16668V6.11751ZM10.8333 2.78418V7.64835L3.88667 2.78418H3.33333C2.89062 2.78469 2.45245 2.87337 2.04439 3.04507C1.63633 3.21676 1.26656 3.46802 0.956667 3.78418L9.04917 9.45085H6.14333L0.130833 5.24168C0.048464 5.52651 0.00446466 5.82105 0 6.11751L0 6.16668L4.69 9.45085H0V11.1175H12.5V2.78418H10.8333Z" fill="#EEEEEE"/>
<path d="M17.5 11.1175V2.78418H12.5V11.1175H0V16.1175H12.5V24.4508H17.5V16.1175H30V11.1175H17.5Z" fill="#CF1B2B"/>
</svg>
