<svg width="30" height="30" viewBox="0 0 30 30" fill="none" xmlns="http://www.w3.org/2000/svg">
<path d="M26.6667 4.16663H12.5V13.3333H30V7.49996C30 6.6159 29.6488 5.76806 29.0237 5.14294C28.3986 4.51782 27.5507 4.16663 26.6667 4.16663ZM12.5 25.8333H26.6667C28.5075 25.8333 30 24.3408 30 22.0833V16.6666H12.5V25.8333ZM0 16.6666V22.0833C0 24.3408 1.4925 25.8333 3.33333 25.8333H9.16667V16.6666H0ZM9.16667 4.16663H3.33333C2.44928 4.16663 1.60143 4.51782 0.976311 5.14294C0.35119 5.76806 0 6.6159 0 7.49996L0 13.3333H9.16667V4.16663Z" fill="#C60C30"/>
<path d="M12.5 4.16663H9.16667V13.3333H0V16.6666H9.16667V25.8333H12.5V16.6666H30V13.3333H12.5V4.16663Z" fill="#EEEEEE"/>
</svg>
