<svg width="20" height="20" viewBox="0 0 20 20" fill="none" xmlns="http://www.w3.org/2000/svg">
<path d="M5.625 1.875C4.25718 1.875 2.995 2.41221 2.07879 3.40403C1.16324 4.39511 0.625 5.8039 0.625 7.5C0.625 8.90212 1.22179 10.3022 2.04893 11.5771C2.17756 11.7754 2.31263 11.972 2.45312 12.1665L3.18447 11.8378C3.32004 11.7739 3.4142 11.6731 3.46221 11.5584L3.46372 11.5548L3.49696 11.4768C3.3572 11.2847 3.22371 11.0913 3.09759 10.8968C2.33289 9.71813 1.875 8.55931 1.875 7.5C1.875 6.0711 2.32476 4.97989 2.99697 4.25222C3.6685 3.52529 4.59382 3.125 5.625 3.125C7.00056 3.125 7.91069 3.6687 8.50425 4.21121C8.80506 4.48612 9.02719 4.76369 9.18813 4.98107C9.22863 5.03574 9.265 5.08629 9.29906 5.13368L9.30688 5.14453C9.33694 5.18643 9.368 5.22967 9.3955 5.26648C9.42256 5.30269 9.46275 5.35529 9.50769 5.40255C9.52962 5.42554 9.57031 5.46627 9.62619 5.50526C9.66819 5.53452 9.80388 5.62476 10.0013 5.62476C10.2009 5.62476 10.3377 5.53224 10.3786 5.50346C10.4341 5.46436 10.4744 5.42362 10.4959 5.4008C10.5404 5.35379 10.5801 5.30142 10.6069 5.26538C10.6338 5.22926 10.6641 5.18706 10.6936 5.14583L10.7027 5.13297C10.7366 5.08569 10.7729 5.03519 10.8133 4.98059C10.9737 4.76346 11.1956 4.48597 11.4961 4.21112C12.0893 3.66871 12.9994 3.125 14.375 3.125C15.4617 3.125 16.3831 3.52865 17.0376 4.24854C17.6952 4.97203 18.125 6.0623 18.125 7.5C18.125 8.58025 17.6657 9.74937 16.902 10.9301C16.1427 12.1041 15.1161 13.2376 14.0629 14.2334C13.012 15.2271 11.9497 16.0693 11.1326 16.6621C10.7239 16.9584 10.3805 17.1896 10.1342 17.3442C10.0856 17.3747 10.0417 17.4017 10.0026 17.4251C9.96325 17.4012 9.91906 17.3738 9.87012 17.3427C9.62344 17.1861 9.27969 16.9523 8.87075 16.6529C8.35331 16.274 7.73781 15.7947 7.08912 15.2408L6.57662 16.4438C7.14131 16.9143 7.67344 17.3254 8.13225 17.6614C8.55844 17.9734 8.92531 18.2236 9.20012 18.398C9.33656 18.4846 9.45644 18.5565 9.55275 18.6089C9.59988 18.6345 9.65044 18.6604 9.69938 18.6817C9.7235 18.6922 9.75625 18.7055 9.79375 18.7172C9.81919 18.7253 9.89925 18.75 10.0013 18.75C10.1024 18.75 10.1819 18.7256 10.2071 18.7178C10.2442 18.7062 10.2767 18.6932 10.3007 18.6828C10.3493 18.6619 10.3997 18.6364 10.4467 18.6111C10.5428 18.5594 10.6625 18.4885 10.7989 18.4028C11.0735 18.2304 11.4403 17.983 11.8665 17.6739C12.7189 17.0557 13.8244 16.1792 14.9218 15.1416C16.0168 14.1062 17.1191 12.8959 17.9516 11.609C18.7796 10.3287 19.375 8.91975 19.375 7.5C19.375 5.8127 18.8673 4.40297 17.9624 3.40771C17.0544 2.40885 15.7883 1.875 14.375 1.875C12.6256 1.875 11.4263 2.58116 10.6526 3.28864C10.3848 3.53351 10.1693 3.77709 10.0004 3.98747C9.83125 3.77713 9.61556 3.53349 9.34756 3.28854C8.57369 2.58118 7.37444 1.875 5.625 1.875Z" fill="url(#paint0_linear_1318_8918)"/>
<path d="M7.18869 12.4057C6.91994 12.2869 6.71369 12.0682 6.59494 11.7994L5.71367 9.73069C5.55117 9.39944 5.08242 9.39944 4.91992 9.73069L4.03867 11.7994C3.92617 12.0682 3.71367 12.2807 3.44492 12.4057L2.33242 12.9057C2.00117 13.0682 2.00117 13.5369 2.33242 13.6994L3.44492 14.1994C3.71367 14.3182 3.91992 14.5369 4.03867 14.8057L4.91992 16.8744C5.08242 17.2057 5.55117 17.2057 5.71367 16.8744L6.59494 14.8057C6.70744 14.5369 6.91994 14.3244 7.18869 14.1994L8.30119 13.6994C8.63244 13.5369 8.63244 13.0682 8.30119 12.9057L7.18869 12.4057ZM15.3888 5.61816C15.4513 5.76191 15.5638 5.88066 15.7075 5.94316L16.3075 6.20566C16.4888 6.29319 16.4888 6.54944 16.3075 6.63694L15.7013 6.90569C15.5575 6.96819 15.445 7.08694 15.3825 7.23069L14.9075 8.34944C14.82 8.52444 14.5638 8.52444 14.4763 8.34944L14.0013 7.23069C13.9388 7.08694 13.8263 6.96819 13.6825 6.90569L13.0763 6.63694C12.895 6.54944 12.895 6.29319 13.0763 6.20566L13.6825 5.93691C13.8263 5.87441 13.9388 5.75566 14.0013 5.61191L14.4825 4.49941C14.57 4.32441 14.8263 4.32441 14.9138 4.49941L15.3888 5.61816Z" fill="url(#paint1_linear_1318_8918)"/>
<defs>
<linearGradient id="paint0_linear_1318_8918" x1="10" y1="1.875" x2="10" y2="18.75" gradientUnits="userSpaceOnUse">
<stop stop-color="#56FFF6"/>
<stop offset="1" stop-color="#5095FD"/>
</linearGradient>
<linearGradient id="paint1_linear_1318_8918" x1="9.26371" y1="4.36816" x2="9.26371" y2="17.1229" gradientUnits="userSpaceOnUse">
<stop stop-color="#56FFF6"/>
<stop offset="1" stop-color="#5095FD"/>
</linearGradient>
</defs>
</svg>
