<svg width="24" height="24" viewBox="0 0 24 24" fill="none" xmlns="http://www.w3.org/2000/svg">
<path d="M20.9768 0H5.99338C4.40384 0 2.8794 0.498697 1.75542 1.38638C0.631443 2.27407 0 3.47803 0 4.73341V18.9336C0 20.189 0.631443 21.393 1.75542 22.2806C2.8794 23.1683 4.40384 23.667 5.99338 23.667H20.9768C21.7716 23.667 22.5338 23.4177 23.0958 22.9738C23.6578 22.53 23.9735 21.928 23.9735 21.3003V2.3667C23.9735 1.73901 23.6578 1.13703 23.0958 0.693191C22.5338 0.249348 21.7716 0 20.9768 0ZM2.99669 4.73341C2.99669 4.10572 3.31241 3.50374 3.8744 3.05989C4.43639 2.61605 5.19861 2.3667 5.99338 2.3667H20.9768V14.2002H5.99338C4.93711 14.2037 3.90168 14.4327 2.99669 14.8629V4.73341ZM5.99338 21.3003C5.19861 21.3003 4.43639 21.051 3.8744 20.6071C3.31241 20.1633 2.99669 19.5613 2.99669 18.9336C2.99669 18.3059 3.31241 17.704 3.8744 17.2601C4.43639 16.8163 5.19861 16.5669 5.99338 16.5669H20.9768V21.3003H5.99338ZM8.99007 7.10011H14.9834C15.3808 7.10011 15.7619 6.97543 16.0429 6.75351C16.3239 6.53159 16.4818 6.2306 16.4818 5.91676C16.4818 5.60291 16.3239 5.30192 16.0429 5.08C15.7619 4.85808 15.3808 4.73341 14.9834 4.73341H8.99007C8.59268 4.73341 8.21157 4.85808 7.93058 5.08C7.64958 5.30192 7.49172 5.60291 7.49172 5.91676C7.49172 6.2306 7.64958 6.53159 7.93058 6.75351C8.21157 6.97543 8.59268 7.10011 8.99007 7.10011Z" fill="#DBDDF5"/>
</svg>
