<svg width="24" height="24" viewBox="0 0 24 24" fill="none" xmlns="http://www.w3.org/2000/svg">
<path d="M12.0006 0C5.38222 0 0 5.38375 0 12C0 18.6163 5.38222 24 12.0006 24C18.6165 24 24 18.6163 24 12C24 5.38375 18.6165 0 12.0006 0ZM22.2351 12C22.2351 14.3413 21.4401 16.5 20.1152 18.225C19.7402 17.9325 19.3415 17.1413 19.7165 16.3213C20.0952 15.4963 20.1939 13.5863 20.1065 12.8425C20.024 12.1 19.6377 10.3113 18.589 10.2938C17.5416 10.2788 16.8229 9.9325 16.2004 8.69C14.9092 6.105 18.624 5.60875 17.3328 4.17875C16.9716 3.77625 15.1042 5.83125 14.8305 3.0925C14.813 2.89625 14.9992 2.6025 15.2505 2.2975C19.3052 3.66 22.2351 7.49375 22.2351 12ZM10.5944 1.86625C10.3495 2.34375 9.70324 2.5375 9.31077 2.89625C8.45581 3.67 8.08833 3.5625 7.62835 4.305C7.16463 5.0475 5.6697 6.11625 5.6697 6.65375C5.6697 7.19125 6.42467 7.82375 6.80215 7.70125C7.17963 7.57625 8.17582 7.58375 8.76079 7.78875C9.34701 7.99625 13.653 8.20375 12.2806 11.8438C11.8456 13.0013 9.93948 12.8063 9.43201 14.7225C9.35576 15.0038 9.09203 16.205 9.07578 16.5975C9.04453 17.205 9.50575 19.495 8.91953 19.495C8.33082 19.495 6.74715 17.4463 6.74715 17.075C6.74715 16.7038 6.33717 15.4025 6.33717 14.2875C6.33717 13.1738 4.43977 13.1912 4.43977 11.71C4.43977 10.375 5.46847 9.71 5.23723 9.06875C5.01099 8.43125 3.20358 8.41 2.44987 8.33125C3.10889 6.62604 4.21127 5.12775 5.6431 3.99119C7.07492 2.85464 8.78425 2.12106 10.5944 1.86625ZM8.78079 21.7125C9.39576 21.3875 9.45826 20.9675 10.0157 20.9463C10.6532 20.9175 11.1719 20.6975 11.8906 20.5387C12.5281 20.4 13.6693 19.7525 14.673 19.67C15.5204 19.6012 17.1916 19.7138 17.6416 20.5313C16.3513 21.3881 14.8828 21.9398 13.3475 22.1445C11.8122 22.3492 10.2505 22.2014 8.78079 21.7125Z" fill="#DBDDF5"/>
</svg>
