<svg width="45" height="45" viewBox="0 0 45 45" fill="none" xmlns="http://www.w3.org/2000/svg">
<path d="M28.8517 23.5134C28.3198 23.8544 27.8639 24.3056 27.5168 24.8396C27.0464 25.5631 26.7951 26.4073 26.7941 27.2703V27.2722C26.7951 28.1352 27.0464 28.9794 27.5168 29.7029C27.6113 29.8483 27.7154 29.9863 27.8254 30.1189C26.769 30.3246 25.7616 30.6505 24.9123 30.9607C24.2173 31.2145 23.5871 31.4735 23.1301 31.6531C22.8935 31.746 22.7098 31.8149 22.5715 31.8601C22.5372 31.8713 22.5096 31.8784 22.4885 31.8845C22.4649 31.8783 22.433 31.8714 22.3928 31.8591C22.2447 31.8141 22.0478 31.7446 21.7961 31.6521C21.3093 31.4732 20.6367 31.2133 19.9035 30.9597C19.0813 30.6753 18.123 30.3802 17.131 30.1736C17.2081 30.0835 17.2827 29.9908 17.3527 29.8943C17.9061 29.132 18.2043 28.2132 18.2043 27.2712C18.2042 26.3294 17.906 25.4114 17.3527 24.6492C16.9472 24.0906 16.419 23.6377 15.8137 23.3201V21.3884C17.0125 21.5129 18.3326 21.826 19.4709 22.158C20.1925 22.3684 20.8196 22.5801 21.2658 22.738C21.4884 22.8168 21.6652 22.8822 21.7853 22.9275C21.8454 22.9501 21.8918 22.9675 21.9221 22.9792C21.937 22.985 21.9481 22.9892 21.9553 22.9919C21.9588 22.9933 21.9616 22.9943 21.9631 22.9949L21.9641 22.9958L22.3332 23.1414L22.7014 22.9958L22.7023 22.9949C22.7038 22.9943 22.7066 22.9933 22.7101 22.9919C22.7172 22.9892 22.7284 22.985 22.7433 22.9792C22.7736 22.9675 22.82 22.9501 22.8801 22.9275C23.0002 22.8822 23.177 22.8168 23.3996 22.738C23.8457 22.5801 24.4729 22.3684 25.1945 22.158C26.3327 21.826 27.6529 21.5129 28.8517 21.3884V23.5134ZM13.7414 25.5857C14.1883 25.5857 14.6167 25.7639 14.9328 26.0798C15.2489 26.3959 15.4268 26.8243 15.4269 27.2712C15.427 27.6046 15.3279 27.9305 15.1428 28.2078C14.9576 28.4849 14.6948 28.7012 14.3869 28.8289C14.0789 28.9565 13.7393 28.9896 13.4123 28.9246C13.0856 28.8595 12.7856 28.6991 12.55 28.4636C12.3142 28.2279 12.1531 27.9273 12.0881 27.6003C12.0231 27.2735 12.0563 26.9346 12.1838 26.6267C12.3113 26.3187 12.5277 26.0551 12.8049 25.8699C13.082 25.6847 13.4081 25.5857 13.7414 25.5857ZM31.258 25.5857C31.7051 25.5858 32.1345 25.7639 32.4504 26.0798C32.7664 26.3958 32.9444 26.8243 32.9445 27.2712C32.9446 27.6046 32.8455 27.9306 32.6603 28.2078C32.4752 28.485 32.2115 28.7012 31.9035 28.8289C31.5956 28.9564 31.2568 28.9895 30.9299 28.9246C30.6029 28.8595 30.3023 28.6993 30.0666 28.4636C29.8309 28.2279 29.6707 27.9273 29.6057 27.6003C29.5406 27.2734 29.5738 26.9347 29.7014 26.6267C29.8289 26.3187 30.0452 26.0551 30.3224 25.8699C30.5994 25.6849 30.925 25.5858 31.258 25.5857ZM22.5412 13.0701C24.3176 13.0701 26.1252 14.9808 26.1252 17.8523V17.8542C26.1261 18.2634 26.0844 18.6708 26.0041 19.071C25.4952 19.1908 24.9659 19.3303 24.4172 19.49V19.491C23.5557 19.7424 22.8231 19.992 22.3332 20.1677C22.0001 20.048 21.5551 19.8934 21.0334 19.7283L20.2512 19.491L19.3605 19.2449C19.2729 19.2221 19.1853 19.202 19.0988 19.1804C19.0035 18.7461 18.9552 18.302 18.9562 17.8562V17.8542C18.9562 14.9835 20.7649 13.0704 22.5412 13.0701Z" stroke="#08101B" stroke-width="2"/>
</svg>
