<svg width="45" height="45" viewBox="0 0 45 45" fill="none" xmlns="http://www.w3.org/2000/svg">
<path d="M22.5 30.498L17.3404 32.7093C16.5214 33.0574 15.7434 32.991 15.0063 32.5103C14.2692 32.0296 13.9006 31.3486 13.9006 30.4673V14.5278C13.9006 13.8521 14.1414 13.2739 14.623 12.7931C15.1045 12.3124 15.6828 12.0716 16.3576 12.0708H28.6424C29.3181 12.0708 29.8967 12.3116 30.3783 12.7931C30.8598 13.2747 31.1002 13.8529 31.0994 14.5278V30.4673C31.0994 31.3477 30.7308 32.0287 29.9938 32.5103C29.2567 32.9919 28.4786 33.0582 27.6596 32.7093L22.5 30.498ZM22.5 27.7954L28.6424 30.4366V14.5278H16.3576V30.4366L22.5 27.7954ZM22.5 14.5278H16.3576H28.6424H22.5Z" fill="#08101B"/>
</svg>
