<svg width="39" height="39" viewBox="0 0 39 39" fill="none" xmlns="http://www.w3.org/2000/svg">
<circle cx="19.0824" cy="19.0824" r="18.5824" stroke="#56FFF6"/>
<path d="M16.3491 24.1158C14.1784 24.1158 12.3415 23.3638 10.8383 21.8599C9.33517 20.3559 8.58319 18.519 8.5824 16.3491C8.5816 14.1792 9.33358 12.3423 10.8383 10.8383C12.3431 9.33434 14.18 8.58237 16.3491 8.58237C18.5182 8.58237 20.3555 9.33434 21.8611 10.8383C23.3666 12.3423 24.1182 14.1792 24.1158 16.3491C24.1158 17.2253 23.9764 18.0518 23.6976 18.8285C23.4188 19.6051 23.0404 20.2922 22.5625 20.8896L29.2538 27.5809C29.4729 27.8 29.5824 28.0788 29.5824 28.4174C29.5824 28.7559 29.4729 29.0347 29.2538 29.2538C29.0347 29.4728 28.7559 29.5824 28.4174 29.5824C28.0788 29.5824 27.8 29.4728 27.581 29.2538L20.8897 22.5625C20.2922 23.0404 19.6052 23.4188 18.8285 23.6976C18.0518 23.9764 17.2254 24.1158 16.3491 24.1158ZM16.3491 21.726C17.8427 21.726 19.1125 21.2035 20.1584 20.1584C21.2043 19.1132 21.7269 17.8435 21.7261 16.3491C21.7253 14.8547 21.2027 13.5853 20.1584 12.541C19.1141 11.4967 17.8443 10.9737 16.3491 10.9721C14.8539 10.9705 13.5846 11.4935 12.541 12.541C11.4975 13.5885 10.9745 14.8579 10.9722 16.3491C10.9698 17.8403 11.4927 19.11 12.541 20.1584C13.5893 21.2067 14.8587 21.7292 16.3491 21.726Z" fill="#56FFF6"/>
</svg>
