<svg width="36" height="38" viewBox="0 0 36 38" fill="none" xmlns="http://www.w3.org/2000/svg">
<path fill-rule="evenodd" clip-rule="evenodd" d="M18 12C16.1435 12 14.363 12.6848 13.0503 13.9038C11.7375 15.1228 11 16.7761 11 18.5C11 20.2239 11.7375 21.8772 13.0503 23.0962C14.363 24.3152 16.1435 25 18 25C19.8565 25 21.637 24.3152 22.9497 23.0962C24.2625 21.8772 25 20.2239 25 18.5C25 16.7761 24.2625 15.1228 22.9497 13.9038C21.637 12.6848 19.8565 12 18 12ZM13.8 18.5C13.8 17.4657 14.2425 16.4737 15.0302 15.7423C15.8178 15.0109 16.8861 14.6 18 14.6C19.1139 14.6 20.1822 15.0109 20.9698 15.7423C21.7575 16.4737 22.2 17.4657 22.2 18.5C22.2 19.5343 21.7575 20.5263 20.9698 21.2577C20.1822 21.9891 19.1139 22.4 18 22.4C16.8861 22.4 15.8178 21.9891 15.0302 21.2577C14.2425 20.5263 13.8 19.5343 13.8 18.5Z" fill="#56FFF6"/>
<path fill-rule="evenodd" clip-rule="evenodd" d="M17.9558 0C17.1688 0 16.5127 -3.29212e-08 15.9751 0.0353488C15.4255 0.0574708 14.8835 0.170963 14.3712 0.371163C13.781 0.615228 13.2446 0.973106 12.7928 1.42436C12.341 1.87561 11.9826 2.4114 11.738 3.00112C11.4815 3.61972 11.4126 4.27367 11.3843 4.98419C11.3811 5.24397 11.3122 5.49872 11.1838 5.72465C11.0555 5.95058 10.872 6.14033 10.6504 6.27619C10.4219 6.40048 10.1657 6.46486 9.90561 6.46331C9.64552 6.46176 9.39007 6.39434 9.16313 6.26735C8.53356 5.93507 7.93229 5.66819 7.26736 5.57981C6.63416 5.49657 5.99076 5.53879 5.37389 5.70407C4.75702 5.86935 4.17876 6.15444 3.67213 6.54307C3.2431 6.8868 2.87434 7.29955 2.58101 7.76437C2.28037 8.2133 1.95144 8.78065 1.55885 9.46112L1.51464 9.53888C1.12028 10.2193 0.793118 10.7867 0.556148 11.271C0.308567 11.7765 0.114039 12.2749 0.0433014 12.8263C-0.125407 14.1042 0.22064 15.3967 1.00533 16.4195C1.41384 16.9515 1.94614 17.3386 2.54741 17.7168C2.77135 17.8495 2.95793 18.0369 3.08969 18.2613C3.22145 18.4857 3.29407 18.7399 3.30076 19C3.29407 19.2601 3.22145 19.5143 3.08969 19.7387C2.95793 19.9631 2.77135 20.1505 2.54741 20.2832C1.94614 20.6614 1.41561 21.0485 1.00533 21.5805C0.616481 22.0868 0.331228 22.6647 0.165859 23.2813C0.00049063 23.8978 -0.0417555 24.5408 0.0415331 25.1737C0.114039 25.7251 0.306798 26.2235 0.55438 26.729C0.793118 27.2133 1.12028 27.7807 1.51464 28.4611L1.55885 28.5389C1.95144 29.2193 2.28037 29.7867 2.58101 30.2356C2.89402 30.7005 3.23002 31.1194 3.67213 31.4552C4.17863 31.8441 4.75683 32.1295 5.3737 32.2951C5.99058 32.4607 6.63405 32.5032 7.26736 32.4202C7.93229 32.3318 8.53356 32.0667 9.16313 31.7327C9.38985 31.606 9.64498 31.5387 9.90473 31.5372C10.1645 31.5356 10.4204 31.5998 10.6486 31.7238C10.872 31.858 11.0571 32.0473 11.1863 32.2735C11.3154 32.4997 11.3842 32.7554 11.3861 33.0158C11.4126 33.7263 11.4815 34.3803 11.7397 34.9989C11.9839 35.5888 12.342 36.1248 12.7935 36.5764C13.245 37.0279 13.7811 37.3861 14.3712 37.6306C14.884 37.8427 15.4145 37.9258 15.9751 37.9629C16.5127 38 17.1688 38 17.9558 38H18.0442C18.8312 38 19.4873 38 20.0249 37.9646C20.5872 37.9258 21.116 37.8427 21.6288 37.6288C22.219 37.3848 22.7554 37.0269 23.2072 36.5756C23.659 36.1244 24.0174 35.5886 24.262 34.9989C24.5185 34.3803 24.5874 33.7263 24.6157 33.0158C24.6186 32.7557 24.6874 32.5006 24.8158 32.2744C24.9441 32.0481 25.1278 31.8581 25.3496 31.722C25.5782 31.598 25.8345 31.534 26.0946 31.5358C26.3547 31.5377 26.6101 31.6054 26.8369 31.7327C27.4664 32.0649 28.0677 32.3318 28.7326 32.4184C30.0112 32.587 31.3044 32.2412 32.3279 31.4569C32.77 31.1176 33.106 30.7005 33.419 30.2356C33.7196 29.7867 34.0486 29.2193 34.4412 28.5389L34.4854 28.4611C34.8797 27.7807 35.2069 27.2133 35.4439 26.729C35.6914 26.2235 35.886 25.7233 35.9567 25.1737C36.1254 23.8958 35.7794 22.6033 34.9947 21.5805C34.5862 21.0485 34.0539 20.6614 33.4526 20.2832C33.2287 20.1505 33.0421 19.9631 32.9103 19.7387C32.7785 19.5143 32.7059 19.2601 32.6992 19C32.6992 18.5087 32.968 18.0208 33.4526 17.7168C34.0539 17.3386 34.5844 16.9515 34.9947 16.4195C35.3835 15.9132 35.6688 15.3353 35.8341 14.7187C35.9995 14.1022 36.0418 13.4592 35.9585 12.8263C35.8751 12.283 35.7018 11.7574 35.4456 11.271C35.1436 10.6838 34.8234 10.1061 34.4854 9.53888L34.4412 9.46112C34.1181 8.88507 33.7772 8.31921 33.419 7.76437C33.1255 7.30018 32.7568 6.88803 32.3279 6.54484C31.8214 6.1559 31.2432 5.87049 30.6263 5.70491C30.0094 5.53933 29.366 5.49682 28.7326 5.57981C28.0677 5.66819 27.4664 5.9333 26.8369 6.26735C26.6101 6.39403 26.355 6.46128 26.0953 6.46282C25.8355 6.46437 25.5796 6.40016 25.3514 6.27619C25.1292 6.14076 24.9449 5.95119 24.816 5.72523C24.687 5.49927 24.6175 5.2443 24.614 4.98419C24.5874 4.27367 24.5185 3.61972 24.2603 3.00112C24.0161 2.41123 23.658 1.87521 23.2065 1.42365C22.755 0.972095 22.2189 0.613857 21.6288 0.369395C21.116 0.157302 20.5855 0.0742326 20.0249 0.0371163C19.4873 4.93818e-08 18.8312 0 18.0442 0H17.9558ZM15.3863 2.81907C15.5224 2.76251 15.7293 2.71126 16.1555 2.68121C16.5923 2.65116 17.1582 2.65116 18 2.65116C18.8418 2.65116 19.4077 2.65116 19.8445 2.68121C20.2707 2.71126 20.4776 2.76251 20.6137 2.81907C21.1567 3.04353 21.5864 3.47302 21.811 4.01563C21.8817 4.1853 21.9401 4.45219 21.9631 5.08316C22.0161 6.48298 22.7394 7.83153 24.0233 8.57209C25.3072 9.31265 26.8369 9.26493 28.0765 8.61098C28.6354 8.31581 28.8953 8.23274 29.0793 8.20977C29.6603 8.13303 30.2481 8.29006 30.7133 8.64633C30.83 8.73647 30.9786 8.89023 31.2173 9.24372C31.4631 9.60781 31.7461 10.0974 32.1669 10.8256C32.5878 11.5538 32.869 12.0451 33.0618 12.4375C33.251 12.821 33.3093 13.026 33.327 13.1727C33.4038 13.7535 33.2467 14.3409 32.8902 14.8059C32.7771 14.9526 32.5755 15.1364 32.0414 15.4722C30.853 16.218 30.0466 17.5189 30.0466 19C30.0466 20.4811 30.853 21.782 32.0414 22.5278C32.5755 22.8636 32.7771 23.0474 32.8902 23.1941C33.2475 23.659 33.4031 24.2458 33.327 24.8273C33.3093 24.974 33.2492 25.1807 33.0618 25.5625C32.869 25.9567 32.5878 26.4462 32.1669 27.1744C31.7461 27.9026 31.4613 28.3922 31.2173 28.7563C30.9786 29.1098 30.83 29.2635 30.7133 29.3537C30.2481 29.7099 29.6603 29.867 29.0793 29.7902C28.8953 29.7673 28.6371 29.6842 28.0765 29.389C26.8386 28.7351 25.3072 28.6856 24.0233 29.4261C22.7394 30.1667 22.0161 31.517 21.9631 32.9168C21.9401 33.5478 21.8817 33.8147 21.811 33.9844C21.6999 34.2527 21.537 34.4964 21.3315 34.7018C21.1261 34.9071 20.8822 35.0699 20.6137 35.1809C20.4776 35.2375 20.2707 35.2887 19.8445 35.3188C19.4077 35.3488 18.8418 35.3488 18 35.3488C17.1582 35.3488 16.5923 35.3488 16.1555 35.3188C15.7293 35.2887 15.5224 35.2375 15.3863 35.1809C15.1178 35.0699 14.8739 34.9071 14.6685 34.7018C14.463 34.4964 14.3001 34.2527 14.189 33.9844C14.1183 33.8147 14.0599 33.5478 14.0369 32.9168C13.9839 31.517 13.2606 30.1685 11.9767 29.4279C10.6928 28.6873 9.16313 28.7351 7.92345 29.389C7.36463 29.6842 7.10467 29.7673 6.92075 29.7902C6.3397 29.867 5.75195 29.7099 5.28671 29.3537C5.17 29.2635 5.02145 29.1098 4.78271 28.7563C4.45004 28.2388 4.13334 27.7113 3.83306 27.1744C3.41217 26.4462 3.13099 25.9549 2.93823 25.5625C2.74901 25.179 2.69065 24.974 2.67297 24.8273C2.59619 24.2465 2.7533 23.6591 3.10977 23.1941C3.22295 23.0474 3.42455 22.8636 3.95862 22.5278C5.14701 21.782 5.95341 20.4811 5.95341 19C5.95341 17.5189 5.14701 16.218 3.95862 15.4722C3.42455 15.1364 3.22295 14.9526 3.10977 14.8059C2.7533 14.3409 2.59619 13.7535 2.67297 13.1727C2.69065 13.026 2.75078 12.8193 2.93823 12.4375C3.13099 12.0433 3.41217 11.5538 3.83306 10.8256C4.25395 10.0974 4.53867 9.60781 4.78271 9.24372C5.02145 8.89023 5.17 8.73647 5.28671 8.64633C5.75195 8.29006 6.3397 8.13303 6.92075 8.20977C7.10467 8.23274 7.36286 8.31581 7.92345 8.61098C9.16136 9.26493 10.6928 9.31442 11.9767 8.57209C13.2606 7.83153 13.9839 6.48298 14.0369 5.08316C14.0599 4.45219 14.1183 4.1853 14.189 4.01563C14.4136 3.47302 14.8433 3.04353 15.3863 2.81907Z" fill="#56FFF6"/>
</svg>
