<svg width="59" height="59" viewBox="0 0 59 59" fill="none" xmlns="http://www.w3.org/2000/svg">
<mask id="mask0_1091_2613" style="mask-type:alpha" maskUnits="userSpaceOnUse" x="0" y="0" width="59" height="59">
<circle cx="29.4742" cy="29.4742" r="29.4742" fill="#D9D9D9"/>
</mask>
<g mask="url(#mask0_1091_2613)">
<path d="M29.4742 34.6655C40.3648 34.6655 51.5398 41.8988 52.2637 56.4302C52.2915 56.9903 52.1006 57.5389 51.7328 57.9553C51.365 58.3718 50.8505 58.6221 50.3022 58.6513C44.5558 58.9504 17.9428 59.1339 8.64906 58.6513C8.10027 58.6228 7.58502 58.3728 7.21666 57.9563C6.84829 57.5398 6.65697 56.9908 6.68479 56.4302C7.40861 41.9016 18.5837 34.6655 29.4742 34.6655ZM29.4742 9.26581C26.7266 9.26581 24.0914 10.3808 22.1485 12.3656C20.2056 14.3503 19.1141 17.0422 19.1141 19.849C19.1141 22.6558 20.2056 25.3477 22.1485 27.3325C24.0914 29.3172 26.7266 30.4322 29.4742 30.4322C32.2219 30.4322 34.857 29.3172 36.7999 27.3325C38.7428 25.3477 39.8343 22.6558 39.8343 19.849C39.8343 17.0422 38.7428 14.3503 36.7999 12.3656C34.857 10.3808 32.2219 9.26581 29.4742 9.26581Z" fill="#5095FD"/>
<circle cx="29.4742" cy="29.4742" r="28.9742" stroke="#5095FD"/>
</g>
</svg>
