<svg width="32" height="32" viewBox="0 0 32 32" fill="none" xmlns="http://www.w3.org/2000/svg">
<path d="M23.2518 1.502L16.0019 8.75198L8.75189 1.502C7.79048 0.540589 6.48653 0.000476679 5.1269 0.000476426C3.76726 0.000476257 2.46332 0.540589 1.50191 1.502C0.540504 2.4634 0.000391055 3.76735 0.000391224 5.12698C0.000391476 6.48662 0.540505 7.79057 1.50191 8.75197L8.88058 15.8733L1.50191 23.2519C0.540505 24.2133 0.000391476 25.5173 0.000391224 26.8769C0.000391055 28.2366 0.540504 29.5405 1.50191 30.5019C2.46332 31.4633 3.76726 32.0034 5.1269 32.0034C6.48653 32.0034 7.79048 31.4633 8.75189 30.5019L16.0019 22.9946L23.2518 30.5019C24.2133 31.4633 25.5172 32.0034 26.8768 32.0034C28.2365 32.0034 29.5404 31.4633 30.5018 30.5019C31.4632 29.5405 32.0033 28.2366 32.0033 26.8769C32.0033 25.5173 31.4632 24.2133 30.5018 23.2519L23.1232 15.8733L30.5018 8.75197C31.4632 7.79057 32.0033 6.48662 32.0033 5.12698C32.0033 3.76735 31.4632 2.4634 30.5018 1.502C29.5404 0.540589 28.2365 0.000475498 26.8768 0.000475498C25.5172 0.000475498 24.2133 0.540588 23.2518 1.502Z" fill="#DBDDF5"/>
</svg>
